<?xml version="1.0" encoding="utf-8"?>
<!-- Generator: Adobe Illustrator 23.1.1, SVG Export Plug-In . SVG Version: 6.00 Build 0)  -->
<svg version="1.1" id="レイヤー_1" xmlns="http://www.w3.org/2000/svg" xmlns:xlink="http://www.w3.org/1999/xlink" x="0px"
	 y="0px" viewBox="0 0 160 25" style="enable-background:new 0 0 160 25;" xml:space="preserve">
<style type="text/css">
	.st0{fill:#0974E8;}
	.st1{fill:#FFCA3A;}
</style>
<path class="st0" d="M28.2,2.7H1.4C0.6,2.7,0,2.1,0,1.4C0,0.6,0.6,0,1.4,0h26.8c0.8,0,1.4,0.6,1.4,1.4C29.5,2.1,28.9,2.7,28.2,2.7z"
	/>
<path class="st0" d="M19.6,10.5H4c-0.8,0-1.4-0.6-1.4-1.4c0-0.8,0.6-1.4,1.4-1.4h15.5c0.8,0,1.4,0.6,1.4,1.4
	C20.9,9.9,20.3,10.5,19.6,10.5z"/>
<path class="st0" d="M10,18.3H1.4c-0.8,0-1.4-0.6-1.4-1.4l0,0c0-0.8,0.6-1.4,1.4-1.4H10c0.8,0,1.4,0.6,1.4,1.4l0,0
	C11.3,17.7,10.7,18.3,10,18.3z"/>
<path class="st1" d="M20.9,24.2c3.1,0,5.6-2.5,5.6-5.6S24,13,20.9,13s-5.6,2.5-5.6,5.6C15.3,21.7,17.8,24.2,20.9,24.2z"/>
<path class="st0" d="M42.6,6.8v14.8h-4.8V6.8h-4V2.7h12.8v4.1H42.6z"/>
<path class="st0" d="M51.2,15.5c0,1.9,0.9,2.9,2.7,2.9c1,0,1.7-0.4,2.2-1.2h4.3c-0.9,2.9-3,4.3-6.5,4.3c-1.1,0-2-0.2-2.9-0.5
	s-1.6-0.8-2.3-1.4c-0.6-0.6-1.1-1.3-1.5-2.1c-0.3-0.8-0.5-1.7-0.5-2.8s0.2-2,0.5-2.8s0.8-1.6,1.4-2.2c0.6-0.6,1.3-1,2.2-1.4
	C51.6,8.1,52.6,8,53.7,8c1.1,0,2,0.2,2.9,0.5s1.6,0.8,2.2,1.4c0.6,0.6,1,1.4,1.4,2.2c0.3,0.9,0.5,1.9,0.5,3v0.5L51.2,15.5L51.2,15.5
	z M56.4,12.9c-0.1-0.6-0.5-1.1-0.9-1.5c-0.5-0.4-1-0.6-1.7-0.6s-1.3,0.2-1.7,0.5c-0.4,0.4-0.7,0.9-0.8,1.5L56.4,12.9L56.4,12.9z"/>
<path class="st0" d="M72.6,12.6c-0.8-0.5-1.6-0.8-2.3-0.8c-0.4,0-0.8,0.1-1.2,0.2c-0.4,0.1-0.7,0.4-1,0.6c-0.3,0.3-0.5,0.6-0.7,1
	s-0.2,0.8-0.2,1.2s0.1,0.8,0.2,1.2c0.2,0.4,0.4,0.7,0.6,1c0.3,0.3,0.6,0.5,1,0.6s0.8,0.2,1.2,0.2c0.8,0,1.6-0.3,2.3-0.9v3.8
	c-1.1,0.5-2.1,0.7-3.1,0.7c-0.9,0-1.8-0.2-2.6-0.5c-0.8-0.3-1.6-0.8-2.2-1.3c-0.6-0.6-1.1-1.3-1.5-2.1c-0.4-0.8-0.6-1.7-0.6-2.7
	s0.2-1.9,0.5-2.7c0.4-0.8,0.9-1.5,1.5-2.1c0.8-0.6,1.5-1,2.4-1.4c0.9-0.3,1.8-0.5,2.8-0.5c1.1,0,2.1,0.2,3,0.7L72.6,12.6L72.6,12.6z
	"/>
<path class="st0" d="M75.2,2.7h4.5v8.6c0.6-0.7,1.2-1.2,1.8-1.5c0.6-0.3,1.4-0.4,2.2-0.4c1.6,0,2.8,0.4,3.6,1.3
	c0.8,0.9,1.2,2.1,1.2,3.6v7.3H84V16c0-0.6-0.1-1.2-0.1-1.6c-0.1-0.4-0.3-0.7-0.5-0.9C83,13.1,82.5,13,82,13c-0.8,0-1.3,0.2-1.7,0.7
	c-0.4,0.5-0.6,1.1-0.6,1.9v6h-4.5L75.2,2.7L75.2,2.7z"/>
<path class="st0" d="M100.4,14.7c0-0.9,0.2-1.8,0.6-2.6c0.4-0.8,0.9-1.5,1.6-2.1s1.5-1.1,2.4-1.4c0.9-0.3,1.9-0.5,3-0.5
	s2.1,0.2,3,0.5s1.7,0.8,2.4,1.4c0.7,0.6,1.2,1.3,1.6,2.1s0.6,1.7,0.6,2.7s-0.2,1.9-0.6,2.7s-0.9,1.5-1.6,2.1s-1.5,1.1-2.4,1.4
	s-2,0.5-3.1,0.5s-2.1-0.2-3-0.5s-1.7-0.8-2.4-1.4c-0.7-0.6-1.2-1.3-1.6-2.2C100.6,16.6,100.4,15.7,100.4,14.7z M105.1,14.7
	c0,0.4,0.1,0.8,0.2,1.2c0.1,0.4,0.4,0.7,0.6,0.9c0.3,0.3,0.6,0.5,0.9,0.6c0.4,0.1,0.7,0.2,1.1,0.2s0.8-0.1,1.1-0.2
	c0.4-0.1,0.7-0.4,0.9-0.6c0.3-0.3,0.5-0.6,0.6-0.9c0.1-0.3,0.2-0.7,0.2-1.1c0-0.4-0.1-0.8-0.2-1.1c-0.2-0.4-0.4-0.7-0.6-0.9
	c-0.3-0.3-0.6-0.5-0.9-0.6c-0.4-0.1-0.7-0.2-1.1-0.2s-0.8,0.1-1.1,0.2c-0.4,0.1-0.7,0.4-0.9,0.6c-0.3,0.3-0.5,0.6-0.6,0.9
	C105.2,13.9,105.1,14.3,105.1,14.7z"/>
<path class="st0" d="M122.6,8.4v7.1c0,1.6,0.8,2.3,2.3,2.3s2.3-0.8,2.3-2.3V8.4h4.5v8c0,1.7-0.6,3-1.7,3.8c-1.1,0.9-2.8,1.3-5,1.3
	s-3.9-0.4-5-1.3s-1.7-2.1-1.7-3.8v-8H122.6z"/>
<path class="st0" d="M144.1,12.6c-0.8-0.5-1.6-0.8-2.3-0.8c-0.4,0-0.8,0.1-1.2,0.2c-0.4,0.1-0.7,0.4-1,0.6c-0.3,0.3-0.5,0.6-0.7,1
	s-0.2,0.8-0.2,1.2s0.1,0.8,0.2,1.2c0.2,0.4,0.4,0.7,0.6,1c0.3,0.3,0.6,0.5,1,0.6s0.8,0.2,1.2,0.2c0.8,0,1.6-0.3,2.3-0.9v3.8
	c-1.1,0.5-2.1,0.7-3.1,0.7c-0.9,0-1.8-0.2-2.6-0.5s-1.6-0.8-2.2-1.3c-0.6-0.6-1.1-1.3-1.5-2.1c-0.4-0.8-0.6-1.7-0.6-2.7
	s0.2-1.9,0.5-2.7c0.4-0.8,0.9-1.5,1.5-2.1s1.4-1.1,2.2-1.4c0.9-0.3,1.8-0.5,2.8-0.5c1.1,0,2.1,0.2,3,0.7L144.1,12.6L144.1,12.6z"/>
<path class="st0" d="M146.7,2.7h4.5v8.6c0.6-0.7,1.2-1.2,1.8-1.5s1.4-0.4,2.2-0.4c1.6,0,2.8,0.4,3.6,1.3c0.8,0.9,1.2,2.1,1.2,3.6
	v7.3h-4.5V16c0-0.6-0.1-1.2-0.1-1.6c-0.1-0.4-0.3-0.7-0.5-0.9c-0.4-0.3-0.9-0.5-1.4-0.5c-0.8,0-1.3,0.2-1.7,0.7s-0.6,1.1-0.6,1.9v6
	h-4.5V2.7L146.7,2.7z"/>
<path class="st0" d="M96.7,8.9V5.1h-4.5v3.8l0,0h-1.5h-1.1v3.7h1.1h1.5l0,0v8.9h4.5v-8.9h2.5V8.9H96.7z"/>
</svg>
